{
  "accessors": [
    {
      "bufferView": 2,
      "componentType": 5126,
      "count": 3504,
      "max": [
        3.3102328777313232,
        0.19297891855239868,
        -0.019234521314501762
      ],
      "min": [
        -3.3102331161499023,
        -1.6778578758239746,
        -7.191160202026367
      ],
      "type": "VEC3"
    },
    {
      "bufferView": 2,
      "byteOffset": 42048,
      "componentType": 5126,
      "count": 3504,
      "max": [
        0.9999909400939941,
        0.9999979734420776,
        0.999998927116394
      ],
      "min": [
        -0.9999909400939941,
        -0.999954104423523,
        -0.9999439716339111
      ],
      "type": "VEC3"
    },
    {
      "bufferView": 3,
      "componentType": 5126,
      "count": 3504,
      "max": [
        1.0,
        0.887903094291687,
        0.9998645782470703,
        1.0
      ],
      "min": [
        -0.9949564337730408,
        -1.0,
        -0.9999744296073914,
        1.0
      ],
      "type": "VEC4"
    },
    {
      "bufferView": 1,
      "componentType": 5126,
      "count": 3504,
      "max": [
        0.997663676738739,
        0.997700572013855
      ],
      "min": [
        0.002336327452212572,
        0.002299428218975663
      ],
      "type": "VEC2"
    },
    {
      "bufferView": 0,
      "componentType": 5125,
      "count": 16140,
      "type": "SCALAR"
    },
    {
      "bufferView": 2,
      "byteOffset": 84096,
      "componentType": 5126,
      "count": 618,
      "max": [
        2.9031877517700195,
        0.047178640961647034,
        -0.14171519875526428
      ],
      "min": [
        -2.9031877517700195,
        -1.6317938566207886,
        -0.5385177135467529
      ],
      "type": "VEC3"
    },
    {
      "bufferView": 2,
      "byteOffset": 91512,
      "componentType": 5126,
      "count": 618,
      "max": [
        0.9997611045837402,
        0.9999436140060425,
        0.9999618530273438
      ],
      "min": [
        -0.9997611045837402,
        -0.999687910079956,
        -0.9998245239257813
      ],
      "type": "VEC3"
    },
    {
      "bufferView": 1,
      "byteOffset": 28032,
      "componentType": 5126,
      "count": 618,
      "max": [
        0.9534898996353149,
        0.8057786822319031
      ],
      "min": [
        0.002336327452212572,
        0.47781628370285034
      ],
      "type": "VEC2"
    },
    {
      "bufferView": 0,
      "byteOffset": 64560,
      "componentType": 5125,
      "count": 2784,
      "type": "SCALAR"
    }
  ],
  "asset": {
    "extras": {
      "author": "PounUP (https://sketchfab.com/PounUP)",
      "license": "CC-BY-NC-4.0 (http://creativecommons.org/licenses/by-nc/4.0/)",
      "source": "https://sketchfab.com/3d-models/glasses-4dbf229576fd4a6194777c3d811cf9ad",
      "title": "Glasses"
    },
    "generator": "Sketchfab-12.68.0",
    "version": "2.0"
  },
  "bufferViews": [
    {
      "buffer": 0,
      "byteLength": 75696,
      "name": "floatBufferViews",
      "target": 34963
    },
    {
      "buffer": 0,
      "byteLength": 32976,
      "byteOffset": 75696,
      "byteStride": 8,
      "name": "floatBufferViews",
      "target": 34962
    },
    {
      "buffer": 0,
      "byteLength": 98928,
      "byteOffset": 108672,
      "byteStride": 12,
      "name": "floatBufferViews",
      "target": 34962
    },
    {
      "buffer": 0,
      "byteLength": 56064,
      "byteOffset": 207600,
      "byteStride": 16,
      "name": "floatBufferViews",
      "target": 34962
    }
  ],
  "buffers": [
    {
      "byteLength": 263664,
      "uri": "scene.bin"
    }
  ],
  "extensionsRequired": [
    "KHR_materials_pbrSpecularGlossiness"
  ],
  "extensionsUsed": [
    "KHR_materials_pbrSpecularGlossiness"
  ],
  "images": [
    {
      "uri": "textures/material_normal.png"
    },
    {
      "uri": "textures/material_occlusion.png"
    }
  ],
  "materials": [
    {
      "doubleSided": true,
      "extensions": {
        "KHR_materials_pbrSpecularGlossiness": {
          "diffuseFactor": [
            0.0,
            0.0,
            0.0,
            1.0
          ],
          "glossinessFactor": 0.45903201219512196,
          "specularFactor": [
            0.25171493902439024,
            0.25171493902439024,
            0.25171493902439024
          ]
        }
      },
      "name": "material",
      "normalTexture": {
        "index": 0
      },
      "occlusionTexture": {
        "index": 1
      }
    },
    {
      "alphaMode": "BLEND",
      "doubleSided": true,
      "extensions": {
        "KHR_materials_pbrSpecularGlossiness": {
          "diffuseFactor": [
            0.8,
            0.8,
            0.8,
            0.09317835365853659
          ],
          "glossinessFactor": 0.042294850537622566,
          "specularFactor": [
            0.0,
            0.0,
            0.0
          ]
        }
      },
      "name": "Material.002"
    }
  ],
  "meshes": [
    {
      "name": "Glasses LP_All_0",
      "primitives": [
        {
          "attributes": {
            "NORMAL": 1,
            "POSITION": 0,
            "TANGENT": 2,
            "TEXCOORD_0": 3
          },
          "indices": 4,
          "material": 0,
          "mode": 4
        }
      ]
    },
    {
      "name": "Glasses LP_Material.002_0",
      "primitives": [
        {
          "attributes": {
            "NORMAL": 6,
            "POSITION": 5,
            "TEXCOORD_0": 7
          },
          "indices": 8,
          "material": 1,
          "mode": 4
        }
      ]
    }
  ],
  "nodes": [
    {
      "children": [
        1
      ],
      "matrix": [
        1.0,
        0.0,
        0.0,
        0.0,
        0.0,
        2.220446049250313e-16,
        -1.0,
        0.0,
        0.0,
        1.0,
        2.220446049250313e-16,
        0.0,
        0.0,
        0.0,
        0.0,
        1.0
      ],
      "name": "Sketchfab_model"
    },
    {
      "children": [
        2
      ],
      "matrix": [
        1.0,
        0.0,
        0.0,
        0.0,
        0.0,
        0.0,
        1.0,
        0.0,
        0.0,
        -1.0,
        0.0,
        0.0,
        0.0,
        0.0,
        0.0,
        1.0
      ],
      "name": "3f63a9661b014165abb18841d85d0bd7.fbx"
    },
    {
      "children": [
        3
      ],
      "name": "RootNode"
    },
    {
      "children": [
        4,
        5
      ],
      "matrix": [
        -99.9999999999803,
        6.278329573009215e-05,
        -1.2719478803546738e-06,
        0.0,
        -6.278509937382491e-05,
        -99.9237888319566,
        3.9035818604931887,
        0.0,
        1.1798188295215196e-06,
        3.903581860493218,
        99.9237888319763,
        0.0,
        0.0,
        0.0,
        0.0,
        1.0
      ],
      "name": "Glasses LP"
    },
    {
      "mesh": 0,
      "name": "Glasses LP_All_0"
    },
    {
      "mesh": 1,
      "name": "Glasses LP_Material.002_0"
    }
  ],
  "samplers": [
    {
      "magFilter": 9729,
      "minFilter": 9987,
      "wrapS": 10497,
      "wrapT": 10497
    }
  ],
  "scene": 0,
  "scenes": [
    {
      "name": "Sketchfab_Scene",
      "nodes": [
        0
      ]
    }
  ],
  "textures": [
    {
      "sampler": 0,
      "source": 0
    },
    {
      "sampler": 0,
      "source": 1
    }
  ]
}
