{
  "accessors": [
    {
      "bufferView": 2,
      "componentType": 5126,
      "count": 24,
      "max": [
        3.2081029415130615,
        1.9980319738388062,
        4.074317932128906
      ],
      "min": [
        -2.982707977294922,
        1.975011944770813,
        0.41192299127578735
      ],
      "type": "VEC3"
    },
    {
      "bufferView": 2,
      "byteOffset": 288,
      "componentType": 5126,
      "count": 24,
      "max": [
        3.000000788233592e-06,
        -0.9999802112579346,
        0.006297001615166664
      ],
      "min": [
        -3.000000788233592e-06,
        -0.9999802112579346,
        0.006289001554250717
      ],
      "type": "VEC3"
    },
    {
      "bufferView": 1,
      "componentType": 5126,
      "count": 24,
      "max": [
        0.9696570038795471,
        0.4692690074443817
      ],
      "min": [
        0.6297469735145569,
        0.26818299293518066
      ],
      "type": "VEC2"
    },
    {
      "bufferView": 0,
      "componentType": 5125,
      "count": 66,
      "type": "SCALAR"
    },
    {
      "bufferView": 2,
      "byteOffset": 576,
      "componentType": 5126,
      "count": 121,
      "max": [
        3.2770071029663086,
        1.9601019620895386,
        4.093107223510742
      ],
      "min": [
        -3.0814459323883057,
        1.9601019620895386,
        0.31643998622894287
      ],
      "type": "VEC3"
    },
    {
      "bufferView": 2,
      "byteOffset": 2028,
      "componentType": 5126,
      "count": 121,
      "max": [
        0.0,
        -1.0,
        0.0
      ],
      "min": [
        0.0,
        -1.0,
        0.0
      ],
      "type": "VEC3"
    },
    {
      "bufferView": 1,
      "byteOffset": 192,
      "componentType": 5126,
      "count": 121,
      "max": [
        0.9637179970741272,
        0.25808098912239075
      ],
      "min": [
        0.6146029829978943,
        0.05071999877691269
      ],
      "type": "VEC2"
    },
    {
      "bufferView": 0,
      "byteOffset": 264,
      "componentType": 5125,
      "count": 600,
      "type": "SCALAR"
    },
    {
      "bufferView": 2,
      "byteOffset": 3480,
      "componentType": 5126,
      "count": 722,
      "max": [
        3.436192035675049,
        2.0037710666656494,
        4.257934093475342
      ],
      "min": [
        -3.210797071456909,
        1.8078830242156982,
        0.14090800285339355
      ],
      "type": "VEC3"
    },
    {
      "bufferView": 2,
      "byteOffset": 12144,
      "componentType": 5126,
      "count": 722,
      "max": [
        1.0,
        0.025605004280805588,
        0.9998012185096741
      ],
      "min": [
        -1.0,
        -0.999980628490448,
        -0.9997986555099487
      ],
      "type": "VEC3"
    },
    {
      "bufferView": 1,
      "byteOffset": 1160,
      "componentType": 5126,
      "count": 722,
      "max": [
        0.8222309947013855,
        0.8238329887390137
      ],
      "min": [
        0.004999999888241291,
        0.03167000040411949
      ],
      "type": "VEC2"
    },
    {
      "bufferView": 0,
      "byteOffset": 2664,
      "componentType": 5125,
      "count": 3144,
      "type": "SCALAR"
    },
    {
      "bufferView": 2,
      "byteOffset": 20808,
      "componentType": 5126,
      "count": 1028,
      "max": [
        2.8710010051727295,
        1.5911940336227417,
        -0.012353000231087208
      ],
      "min": [
        -2.7199859619140625,
        -1.9067139625549316,
        -0.046907998621463776
      ],
      "type": "VEC3"
    },
    {
      "bufferView": 2,
      "byteOffset": 33144,
      "componentType": 5126,
      "count": 1028,
      "max": [
        0.3089739680290222,
        0.30897605419158936,
        -0.951068103313446
      ],
      "min": [
        -0.3089739680290222,
        -0.30897217988967896,
        -1.0
      ],
      "type": "VEC3"
    },
    {
      "bufferView": 1,
      "byteOffset": 6936,
      "componentType": 5126,
      "count": 1028,
      "max": [
        0.8393309712409973,
        0.8393309712409973
      ],
      "min": [
        0.5631669759750366,
        0.6965180039405823
      ],
      "type": "VEC2"
    },
    {
      "bufferView": 0,
      "byteOffset": 15240,
      "componentType": 5125,
      "count": 5736,
      "type": "SCALAR"
    },
    {
      "bufferView": 2,
      "byteOffset": 45480,
      "componentType": 5126,
      "count": 9928,
      "max": [
        2.52667498588562,
        1.3634129762649536,
        0.23991699516773224
      ],
      "min": [
        -2.6531620025634766,
        -0.4653419852256775,
        0.09544099867343903
      ],
      "type": "VEC3"
    },
    {
      "bufferView": 2,
      "byteOffset": 164616,
      "componentType": 5126,
      "count": 9928,
      "max": [
        0.9915269017219543,
        0.9984343647956848,
        0.9992039799690247
      ],
      "min": [
        -0.9915640950202942,
        -0.9984385371208191,
        -0.9991999864578247
      ],
      "type": "VEC3"
    },
    {
      "bufferView": 1,
      "byteOffset": 15160,
      "componentType": 5126,
      "count": 9928,
      "max": [
        0.9723770022392273,
        0.9741690158843994
      ],
      "min": [
        0.004999999888241291,
        0.004999999888241291
      ],
      "type": "VEC2"
    },
    {
      "bufferView": 0,
      "byteOffset": 38184,
      "componentType": 5125,
      "count": 43512,
      "type": "SCALAR"
    },
    {
      "bufferView": 2,
      "byteOffset": 283752,
      "componentType": 5126,
      "count": 9772,
      "max": [
        2.896040916442871,
        1.3634129762649536,
        0.23991699516773224
      ],
      "min": [
        -2.6603341102600098,
        -0.4977239966392517,
        0.09544099867343903
      ],
      "type": "VEC3"
    },
    {
      "bufferView": 2,
      "byteOffset": 401016,
      "componentType": 5126,
      "count": 9772,
      "max": [
        0.9919534921646118,
        0.9996496438980103,
        0.9966217875480652
      ],
      "min": [
        -0.991950511932373,
        -0.9996243715286255,
        -0.9966023564338684
      ],
      "type": "VEC3"
    },
    {
      "bufferView": 1,
      "byteOffset": 94584,
      "componentType": 5126,
      "count": 9772,
      "max": [
        0.9723770022392273,
        0.9817889928817749
      ],
      "min": [
        0.004999999888241291,
        0.004999999888241291
      ],
      "type": "VEC2"
    },
    {
      "bufferView": 0,
      "byteOffset": 212232,
      "componentType": 5125,
      "count": 43044,
      "type": "SCALAR"
    },
    {
      "bufferView": 2,
      "byteOffset": 518280,
      "componentType": 5126,
      "count": 868,
      "max": [
        2.9176440238952637,
        0.4855329990386963,
        0.23991699516773224
      ],
      "min": [
        -2.6379849910736084,
        -0.4851289987564087,
        0.09544099867343903
      ],
      "type": "VEC3"
    },
    {
      "bufferView": 2,
      "byteOffset": 528696,
      "componentType": 5126,
      "count": 868,
      "max": [
        0.9760218858718872,
        0.9996241331100464,
        0.9966254830360413
      ],
      "min": [
        -0.9760503768920898,
        -0.9996528625488281,
        -0.9966063499450684
      ],
      "type": "VEC3"
    },
    {
      "bufferView": 1,
      "byteOffset": 172760,
      "componentType": 5126,
      "count": 868,
      "max": [
        0.7837809920310974,
        0.7940340042114258
      ],
      "min": [
        0.08500999957323074,
        0.28503599762916565
      ],
      "type": "VEC2"
    },
    {
      "bufferView": 0,
      "byteOffset": 384408,
      "componentType": 5125,
      "count": 3852,
      "type": "SCALAR"
    },
    {
      "bufferView": 2,
      "byteOffset": 539112,
      "componentType": 5126,
      "count": 384,
      "max": [
        3.4948039054870605,
        1.2674649953842163,
        0.18908700346946716
      ],
      "min": [
        -3.297775983810425,
        0.7466830015182495,
        0.16453500092029572
      ],
      "type": "VEC3"
    },
    {
      "bufferView": 2,
      "byteOffset": 543720,
      "componentType": 5126,
      "count": 384,
      "max": [
        1.0,
        1.0,
        1.0
      ],
      "min": [
        -1.0,
        -1.0,
        -1.0
      ],
      "type": "VEC3"
    },
    {
      "bufferView": 1,
      "byteOffset": 179704,
      "componentType": 5126,
      "count": 384,
      "max": [
        0.769012987613678,
        0.7802640199661255
      ],
      "min": [
        0.004999999888241291,
        0.2888459861278534
      ],
      "type": "VEC2"
    },
    {
      "bufferView": 0,
      "byteOffset": 399816,
      "componentType": 5125,
      "count": 528,
      "type": "SCALAR"
    },
    {
      "bufferView": 2,
      "byteOffset": 548328,
      "componentType": 5126,
      "count": 5611,
      "max": [
        3.5056869983673096,
        1.9064949750900269,
        0.20310500264167786
      ],
      "min": [
        -3.303297996520996,
        -2.287914991378784,
        -0.011814000084996223
      ],
      "type": "VEC3"
    },
    {
      "bufferView": 2,
      "byteOffset": 615660,
      "componentType": 5126,
      "count": 5611,
      "max": [
        1.0,
        1.0,
        1.0
      ],
      "min": [
        -1.0,
        -1.0,
        -1.0
      ],
      "type": "VEC3"
    },
    {
      "bufferView": 3,
      "componentType": 5126,
      "count": 5611,
      "max": [
        1.0,
        1.0,
        1.0,
        1.0
      ],
      "min": [
        -1.0,
        -1.0,
        -1.0,
        -1.0
      ],
      "type": "VEC4"
    },
    {
      "bufferView": 1,
      "byteOffset": 182776,
      "componentType": 5126,
      "count": 5611,
      "max": [
        0.9758149981498718,
        0.9950000047683716
      ],
      "min": [
        0.004999999888241291,
        0.004999999888241291
      ],
      "type": "VEC2"
    },
    {
      "bufferView": 0,
      "byteOffset": 401928,
      "componentType": 5125,
      "count": 18615,
      "type": "SCALAR"
    },
    {
      "bufferView": 2,
      "byteOffset": 682992,
      "componentType": 5126,
      "count": 9993,
      "max": [
        3.5056869983673096,
        1.9064949750900269,
        0.2474689930677414
      ],
      "min": [
        -3.3033010959625244,
        -2.2879300117492676,
        0.010114000178873539
      ],
      "type": "VEC3"
    },
    {
      "bufferView": 2,
      "byteOffset": 802908,
      "componentType": 5126,
      "count": 9993,
      "max": [
        1.0,
        1.0,
        1.0
      ],
      "min": [
        -1.0,
        -1.0,
        -1.0
      ],
      "type": "VEC3"
    },
    {
      "bufferView": 3,
      "byteOffset": 89776,
      "componentType": 5126,
      "count": 9993,
      "max": [
        1.0,
        1.0,
        1.0,
        1.0
      ],
      "min": [
        -1.0,
        -1.0,
        -1.0,
        -1.0
      ],
      "type": "VEC4"
    },
    {
      "bufferView": 1,
      "byteOffset": 227664,
      "componentType": 5126,
      "count": 9993,
      "max": [
        0.8683590292930603,
        0.9227070212364197
      ],
      "min": [
        0.004999999888241291,
        0.027860000729560852
      ],
      "type": "VEC2"
    },
    {
      "bufferView": 0,
      "byteOffset": 476388,
      "componentType": 5125,
      "count": 48135,
      "type": "SCALAR"
    },
    {
      "bufferView": 2,
      "byteOffset": 922824,
      "componentType": 5126,
      "count": 1309,
      "max": [
        3.528947114944458,
        2.0916929244995117,
        4.348066806793213
      ],
      "min": [
        -3.3035531044006348,
        0.5398280024528503,
        0.09161800146102905
      ],
      "type": "VEC3"
    },
    {
      "bufferView": 2,
      "byteOffset": 938532,
      "componentType": 5126,
      "count": 1309,
      "max": [
        1.0,
        1.0,
        1.0
      ],
      "min": [
        -1.0,
        -1.0,
        -0.9968976378440857
      ],
      "type": "VEC3"
    },
    {
      "bufferView": 3,
      "byteOffset": 249664,
      "componentType": 5126,
      "count": 1309,
      "max": [
        1.0,
        0.9999802112579346,
        1.0,
        1.0
      ],
      "min": [
        -1.0,
        -1.0,
        -1.0,
        -1.0
      ],
      "type": "VEC4"
    },
    {
      "bufferView": 1,
      "byteOffset": 307608,
      "componentType": 5126,
      "count": 1309,
      "max": [
        0.9733710289001465,
        0.9197540283203125
      ],
      "min": [
        0.004999999888241291,
        0.004999999888241291
      ],
      "type": "VEC2"
    },
    {
      "bufferView": 0,
      "byteOffset": 668928,
      "componentType": 5125,
      "count": 2592,
      "type": "SCALAR"
    }
  ],
  "asset": {
    "extras": {
      "author": "Oleg Muzyka (https://sketchfab.com/olemuzyka)",
      "license": "CC-BY-4.0 (http://creativecommons.org/licenses/by/4.0/)",
      "source": "https://sketchfab.com/3d-models/laptop-5ee15da877a84df3aade63344d9fc1a4",
      "title": "Laptop"
    },
    "generator": "Sketchfab-12.68.0",
    "version": "2.0"
  },
  "bufferViews": [
    {
      "buffer": 0,
      "byteLength": 679296,
      "name": "floatBufferViews",
      "target": 34963
    },
    {
      "buffer": 0,
      "byteLength": 318080,
      "byteOffset": 679296,
      "byteStride": 8,
      "name": "floatBufferViews",
      "target": 34962
    },
    {
      "buffer": 0,
      "byteLength": 954240,
      "byteOffset": 997376,
      "byteStride": 12,
      "name": "floatBufferViews",
      "target": 34962
    },
    {
      "buffer": 0,
      "byteLength": 270608,
      "byteOffset": 1951616,
      "byteStride": 16,
      "name": "floatBufferViews",
      "target": 34962
    }
  ],
  "buffers": [
    {
      "byteLength": 2222224,
      "uri": "scene.bin"
    }
  ],
  "images": [
    {
      "uri": "textures/aiStandardSurface3SG_baseColor.png"
    },
    {
      "uri": "textures/initialShadingGroup_metallicRoughness.png"
    },
    {
      "uri": "textures/initialShadingGroup_normal.png"
    }
  ],
  "materials": [
    {
      "doubleSided": true,
      "name": "aiStandardSurface1SG",
      "pbrMetallicRoughness": {
        "baseColorFactor": [
          0.0,
          0.0,
          0.0,
          1.0
        ],
        "roughnessFactor": 0.11756859756097561
      }
    },
    {
      "doubleSided": true,
      "name": "aiStandardSurface3SG",
      "pbrMetallicRoughness": {
        "baseColorTexture": {
          "index": 0
        },
        "metallicFactor": 0.37366615853658536,
        "roughnessFactor": 0.4712271341463415
      }
    },
    {
      "doubleSided": true,
      "name": "aiStandardSurface4SG",
      "pbrMetallicRoughness": {
        "baseColorTexture": {
          "index": 0
        },
        "metallicFactor": 0.5992759146341463,
        "roughnessFactor": 0.6
      }
    },
    {
      "doubleSided": true,
      "name": "aiStandardSurface5SG",
      "pbrMetallicRoughness": {
        "metallicFactor": 0.0,
        "roughnessFactor": 0.6
      }
    },
    {
      "doubleSided": true,
      "name": "aiStandardSurface6SG",
      "pbrMetallicRoughness": {
        "baseColorTexture": {
          "index": 0
        },
        "metallicFactor": 0.22122713414634146,
        "roughnessFactor": 0.5261051829268293
      }
    },
    {
      "doubleSided": true,
      "name": "aiStandardSurface7SG",
      "pbrMetallicRoughness": {
        "baseColorFactor": [
          0.0003424751363051048,
          1.5153767093146216e-05,
          1.5153767093146216e-05,
          1.0
        ],
        "metallicFactor": 0.4346417682926829,
        "roughnessFactor": 0.18730945121951215
      }
    },
    {
      "doubleSided": true,
      "name": "initialShadingGroup",
      "normalTexture": {
        "index": 2
      },
      "pbrMetallicRoughness": {
        "baseColorTexture": {
          "index": 0
        },
        "metallicRoughnessTexture": {
          "index": 1
        },
        "roughnessFactor": 0.22732469512195122
      }
    }
  ],
  "meshes": [
    {
      "name": "Object_0",
      "primitives": [
        {
          "attributes": {
            "NORMAL": 1,
            "POSITION": 0,
            "TEXCOORD_0": 2
          },
          "indices": 3,
          "material": 3,
          "mode": 4
        }
      ]
    },
    {
      "name": "Object_1",
      "primitives": [
        {
          "attributes": {
            "NORMAL": 5,
            "POSITION": 4,
            "TEXCOORD_0": 6
          },
          "indices": 7,
          "material": 5,
          "mode": 4
        }
      ]
    },
    {
      "name": "Object_2",
      "primitives": [
        {
          "attributes": {
            "NORMAL": 9,
            "POSITION": 8,
            "TEXCOORD_0": 10
          },
          "indices": 11,
          "material": 0,
          "mode": 4
        }
      ]
    },
    {
      "name": "Object_3",
      "primitives": [
        {
          "attributes": {
            "NORMAL": 13,
            "POSITION": 12,
            "TEXCOORD_0": 14
          },
          "indices": 15,
          "material": 1,
          "mode": 4
        }
      ]
    },
    {
      "name": "Object_4",
      "primitives": [
        {
          "attributes": {
            "NORMAL": 17,
            "POSITION": 16,
            "TEXCOORD_0": 18
          },
          "indices": 19,
          "material": 2,
          "mode": 4
        }
      ]
    },
    {
      "name": "Object_5",
      "primitives": [
        {
          "attributes": {
            "NORMAL": 21,
            "POSITION": 20,
            "TEXCOORD_0": 22
          },
          "indices": 23,
          "material": 2,
          "mode": 4
        }
      ]
    },
    {
      "name": "Object_6",
      "primitives": [
        {
          "attributes": {
            "NORMAL": 25,
            "POSITION": 24,
            "TEXCOORD_0": 26
          },
          "indices": 27,
          "material": 2,
          "mode": 4
        }
      ]
    },
    {
      "name": "Object_7",
      "primitives": [
        {
          "attributes": {
            "NORMAL": 29,
            "POSITION": 28,
            "TEXCOORD_0": 30
          },
          "indices": 31,
          "material": 4,
          "mode": 4
        }
      ]
    },
    {
      "name": "Object_8",
      "primitives": [
        {
          "attributes": {
            "NORMAL": 33,
            "POSITION": 32,
            "TANGENT": 34,
            "TEXCOORD_0": 35
          },
          "indices": 36,
          "material": 6,
          "mode": 4
        }
      ]
    },
    {
      "name": "Object_9",
      "primitives": [
        {
          "attributes": {
            "NORMAL": 38,
            "POSITION": 37,
            "TANGENT": 39,
            "TEXCOORD_0": 40
          },
          "indices": 41,
          "material": 6,
          "mode": 4
        }
      ]
    },
    {
      "name": "Object_10",
      "primitives": [
        {
          "attributes": {
            "NORMAL": 43,
            "POSITION": 42,
            "TANGENT": 44,
            "TEXCOORD_0": 45
          },
          "indices": 46,
          "material": 6,
          "mode": 4
        }
      ]
    }
  ],
  "nodes": [
    {
      "children": [
        1
      ],
      "matrix": [
        1.0,
        0.0,
        0.0,
        0.0,
        0.0,
        2.220446049250313e-16,
        -1.0,
        0.0,
        0.0,
        1.0,
        2.220446049250313e-16,
        0.0,
        0.0,
        0.0,
        0.0,
        1.0
      ],
      "name": "Sketchfab_model"
    },
    {
      "children": [
        2,
        3,
        4,
        5,
        6,
        7,
        8,
        9,
        10,
        11,
        12
      ],
      "name": "laptop.obj.cleaner.materialmerger.gles"
    },
    {
      "mesh": 0,
      "name": "Object_2"
    },
    {
      "mesh": 1,
      "name": "Object_3"
    },
    {
      "mesh": 2,
      "name": "Object_4"
    },
    {
      "mesh": 3,
      "name": "Object_5"
    },
    {
      "mesh": 4,
      "name": "Object_6"
    },
    {
      "mesh": 5,
      "name": "Object_7"
    },
    {
      "mesh": 6,
      "name": "Object_8"
    },
    {
      "mesh": 7,
      "name": "Object_9"
    },
    {
      "mesh": 8,
      "name": "Object_10"
    },
    {
      "mesh": 9,
      "name": "Object_11"
    },
    {
      "mesh": 10,
      "name": "Object_12"
    }
  ],
  "samplers": [
    {
      "magFilter": 9729,
      "minFilter": 9987,
      "wrapS": 10497,
      "wrapT": 10497
    }
  ],
  "scene": 0,
  "scenes": [
    {
      "name": "Sketchfab_Scene",
      "nodes": [
        0
      ]
    }
  ],
  "textures": [
    {
      "sampler": 0,
      "source": 0
    },
    {
      "sampler": 0,
      "source": 1
    },
    {
      "sampler": 0,
      "source": 2
    }
  ]
}
